# xmcd
#
# Track frame offsets:
#	150
#	15888
#	33743
#	49760
#	68498
#	87213
#	103747
#	119913
#	140541
#	161571
#	177497
#	197328
#	212579
#	232677
#	257688
#	292323
#	314452
#	329640
#
# Disc length: 4671 seconds
#
# Revision: 1
# Processed by: cddbd v1.5.2PL0 Copyright (c) Steve Scherf et al.
# Submitted via: audiograbber 1.83.01
#
DISCID=06123d12
DTITLE=Various Artist - Gothic Spirits 06 [CD2)
DYEAR=2007
DGENRE=Gothic
TTITLE0=The 69 Eyes - Never Say Die
TTITLE1=Scream Silence - Harvest
TTITLE2=The Mission - Belladonna
TTITLE3=Krypteria - All Systems Go
TTITLE4=Visions Of Atlantis - The Secret
TTITLE5=Sirenia - My Mind's Eye
TTITLE6=Passionworks - Flying
TTITLE7=Imperia - Mirror
TTITLE8=Autumn - Angel Of Desire
TTITLE9=Big Boy - Hail The Big Boy
TTITLE10=Mono Inc. - In My Heart
TTITLE11=The Pussybats - Miss Purgatory
TTITLE12=Amatris - Doomed
TTITLE13=I:Scintilla - Cursive Eve
TTITLE14=Virgin Black - Requiem, Kyrie
TTITLE15=The Secret Meeting - Every Little Thing
TTITLE16=Lacuna Coil - To The Edge
TTITLE17=Tristania - Destination Departure
EXTD=
EXTT0=
EXTT1=
EXTT2=
EXTT3=
EXTT4=
EXTT5=
EXTT6=
EXTT7=
EXTT8=
EXTT9=
EXTT10=
EXTT11=
EXTT12=
EXTT13=
EXTT14=
EXTT15=
EXTT16=
EXTT17=
PLAYORDER=
